<?xml version="1.0" encoding="UTF-8"?>
<svg id="Layer_1" xmlns="http://www.w3.org/2000/svg" version="1.1" viewBox="0 0 1024 1024">
  <!-- Generator: Adobe Illustrator 29.7.1, SVG Export Plug-In . SVG Version: 2.1.1 Build 8)  -->
  <defs>
    <style>
      .st0 {
        fill: #fff;
      }
    </style>
  </defs>
  <path class="st0" d="M941.4,671.56l-.08-.17c-1.81-3.66-3.83-7.18-6.04-10.5.23-.65.45-1.3.65-1.95,1.45-4.48,2.54-9.15,3.26-13.87.7-4.59,1.05-9.14,1.05-13.52,0-5.76-.44-11.45-1.3-16.88-.89-5.65-2.22-11.07-3.95-16.11l-2.5-7.27c-.71-2.06-1.99-3.87-3.71-5.21l-6.07-4.74c-4.78-3.73-10.2-7.18-16.56-10.53-1.32-.7-2.69-1.38-4.1-2.05,1.98-1.31,3.9-2.64,5.76-3.97l10.83-7.76c2.93-2.1,4.68-5.51,4.68-9.12v-54.59l3.48-4.44c6.26-7.98,11.3-17.43,15.39-28.91,4.11-11.54,6.19-24.16,6.19-37.52,0-11.45-1.73-23.12-5.15-34.69-3.86-13.04-10.38-25.1-19.4-35.86l-7.78-9.29c-.27-.33-.57-.63-.87-.93,1.27-6.36,2.32-12.82,3.12-19.24.93-7.46,1.4-14.54,1.4-21.06v-13.36c0-3.61-1.76-7.03-4.71-9.14l-10.88-7.75c-9.09-6.48-20.02-12.56-32.5-18.06-11.83-5.21-24.97-9.83-39.07-13.72-13.89-3.83-28.92-6.92-44.69-9.2-15.97-2.3-32.56-3.47-49.3-3.47-31.96,0-61.84,3.76-88.81,11.17-28.3,7.78-53.22,19.71-74.09,35.47-2.7,2.04-5.35,4.16-7.94,6.36-1.55-5.61-3.64-11.06-6.24-16.28-6.11-12.26-14.65-22.94-25.37-31.76-10.03-8.23-21.77-14.75-34.91-19.36-12.99-4.56-27.12-6.87-41.99-6.87s-28.38,2.17-41.26,6.44c-13.22,4.39-25.12,10.71-35.35,18.8-10.97,8.66-19.76,19.26-26.14,31.49-.4.76-.79,1.54-1.16,2.31-2.25-1.57-4.56-3.09-6.93-4.55-16.49-10.18-37.34-18.23-61.99-23.93-23.44-5.42-51.65-8.17-83.84-8.17-25.5,0-48.88,1.42-69.49,4.23-20.73,2.83-38.77,6.44-53.63,10.74-16.65,4.81-29.59,10.19-39.57,16.42-18.52,11.57-27.92,26.14-27.92,43.3v209.86c0,27.79,8.65,49.72,25.7,65.17,2.27,2.05,4.7,4,7.28,5.83-7.96,6.85-14.76,14.93-20.27,24.07-8.47,14.07-12.77,30.48-12.77,48.8,0,7.13.87,14.23,2.58,21.08,1.74,6.94,4.29,13.55,7.59,19.63.23.42.46.84.7,1.26-1.17,2.1-2.25,4.27-3.21,6.48-3.96,9.09-5.98,18.86-5.98,29.03,0,11.05,1.84,21.39,5.47,30.73,2.99,7.7,6.89,15.07,11.59,21.91l3.6,5.24c1.03,1.49,2.41,2.73,4.02,3.59l5.65,2.98c6.59,3.48,13.37,6.5,20.14,8.97,6.93,2.54,14.25,4.61,21.75,6.15,7.13,1.46,14.67,2.52,22.4,3.16,7.26.6,15.08.9,23.25.9,17.85,0,34.19-2.35,48.55-7,9.95-3.21,19.12-7.36,27.3-12.35,1.59,1.32,3.25,2.57,4.96,3.74,7.26,4.97,15.65,8.69,24.92,11.07,8.09,2.08,16.89,3.13,26.16,3.13,3.9,0,8.01-.2,12.21-.57,4.97-.45,10.13-1.34,15.33-2.64,5.27-1.32,10.68-3.16,16.09-5.48.75-.32,1.51-.66,2.26-1,5.35,2.77,11.18,4.97,17.37,6.56,16.33,4.19,35.13,4.18,54.36-.05,12.2-2.68,23.77-8.08,34.38-16.04l.13-.1c4.22,2.78,8.58,5.29,13.02,7.48,9.55,4.71,19.8,8.26,30.45,10.53,10.18,2.17,20.63,3.28,31.05,3.28,16.55,0,32.42-2.48,47.15-7.37,16.12-5.36,30.44-13.86,42.56-25.29,2.95-2.78,5.77-5.77,8.44-8.94,1.05,2.3,2.25,4.53,3.6,6.68,5.23,8.35,12.21,15.27,20.74,20.55,7.15,4.44,15.26,7.72,24.08,9.76,7.58,1.75,15.5,2.64,23.52,2.64,14.44,0,27.5-2.2,38.8-6.54,11.3-4.34,20.31-9.54,27.54-15.88l3.17-2.79.6.87c1.02,1.49,2.41,2.73,4.02,3.58l5.65,2.98c6.59,3.48,13.37,6.5,20.14,8.98,6.94,2.54,14.26,4.61,21.75,6.15,7.14,1.46,14.67,2.52,22.39,3.16,7.26.6,15.08.9,23.25.9,17.85,0,34.19-2.35,48.56-7,15.06-4.86,28.17-11.78,38.97-20.56,11.48-9.34,20.41-20.51,26.53-33.2,6.17-12.81,9.3-26.55,9.3-40.84,0-16.67-3.15-31.55-9.37-44.23M583.98,745.76c-4.98,9.47-11.17,17.73-18.39,24.54-9.92,9.36-21.68,16.33-34.93,20.73-12.64,4.19-26.32,6.32-40.66,6.32-8.98,0-17.98-.95-26.76-2.82-8.99-1.92-17.61-4.9-25.63-8.86-5.4-2.66-10.65-5.89-15.61-9.6-1.92-1.42-4.3-2.21-6.7-2.21s-4.81.79-6.72,2.23l-5.58,4.18c-8.24,6.18-17.14,10.35-26.45,12.4-15.86,3.49-31.77,3.57-44.81.22-6.04-1.55-11.53-3.83-16.35-6.78-3.33-2.03-7.55-2.18-11.01-.38-1.86.97-3.71,1.85-5.52,2.62-4.4,1.88-8.76,3.37-12.97,4.42-4.18,1.05-8.29,1.76-12.2,2.11-3.57.32-7.05.49-10.34.49-7.54,0-14.61-.84-21.04-2.49-6.95-1.78-13.14-4.51-18.42-8.12-2.71-1.85-5.18-3.97-7.35-6.29-3.82-4.1-10.14-4.74-14.7-1.49-8.01,5.71-17.49,10.35-28.16,13.8-12.32,3.98-26.52,6-42.22,6-7.61,0-14.86-.28-21.56-.83-6.91-.57-13.62-1.51-19.95-2.81-6.49-1.33-12.82-3.11-18.8-5.31-5.91-2.16-11.83-4.8-17.61-7.85l-3.61-1.9-2.31-3.36c-3.79-5.52-6.95-11.48-9.37-17.7-2.71-6.95-4.07-14.78-4.07-23.27,0-7.32,1.43-14.32,4.26-20.8,1.3-2.98,2.86-5.82,4.64-8.46,2.56-3.8,2.57-8.72,0-12.54-1.03-1.53-2-3.14-2.9-4.79-2.48-4.57-4.4-9.56-5.71-14.82-1.31-5.22-1.97-10.63-1.97-16.09,0-14.51,3.3-27.35,9.81-38.17,6.25-10.37,14.53-18.94,24.61-25.49.29-.19.6-.38.88-.55,3.5-2.15,5.54-6.03,5.33-10.13-.22-4.11-2.66-7.77-6.38-9.54-5.82-2.79-10.96-6.18-15.26-10.08-12.56-11.39-18.94-28.18-18.94-49.91v-209.86c0-9.59,6.13-18.28,18.23-25.83,8.34-5.21,19.59-9.82,34.38-14.1,13.89-4.02,30.95-7.42,50.69-10.11,19.69-2.68,42.14-4.04,66.71-4.04,30.63,0,57.28,2.57,79.2,7.63,22.46,5.19,41.23,12.39,55.8,21.38,5.3,3.28,10.23,6.84,14.62,10.57,2.88,2.45,6.76,3.29,10.39,2.24,3.63-1.05,6.47-3.83,7.59-7.44,1.2-3.85,2.74-7.6,4.59-11.13,5.03-9.64,11.97-18,20.65-24.85,8.35-6.6,18.13-11.78,29.07-15.41,10.79-3.58,22.48-5.39,34.77-5.39s24.38,1.92,35.17,5.7c10.85,3.81,20.49,9.14,28.65,15.84,8.47,6.96,15.21,15.39,20.02,25.04,4.13,8.29,6.56,17.25,7.22,26.64.31,4.43,3.21,8.26,7.38,9.77,4.17,1.51,8.84.41,11.91-2.8,5.65-5.91,11.88-11.44,18.51-16.45,18.77-14.18,41.36-24.96,67.14-32.05,25.18-6.92,53.23-10.43,83.35-10.43,15.76,0,31.36,1.1,46.37,3.26,14.91,2.15,29.09,5.07,42.15,8.67,13.13,3.62,25.33,7.9,36.24,12.71,11.2,4.94,20.9,10.31,28.84,15.98l6.95,4.96v8.53c0,5.67-.42,11.91-1.24,18.52-.79,6.35-1.85,12.76-3.13,19.02-.44,2.14-.92,4.28-1.44,6.38-.83,3.37-.07,6.87,2.06,9.6,1.91,2.43,4.66,3.93,7.69,4.24l5.01,5.98c7.19,8.58,12.39,18.16,15.44,28.47,2.86,9.67,4.3,19.37,4.3,28.85,0,11-1.68,21.3-5,30.61-3.33,9.34-7.32,16.9-12.19,23.1l-5.49,6.98c-1.54,1.97-2.39,4.43-2.39,6.93v53.02l-6.91,4.96c-6.11,4.38-12.99,8.67-20.46,12.76-3.98,2.18-6.24,6.51-5.76,11.02.47,4.51,3.59,8.26,7.92,9.56.36.11.71.22,1.06.33,6.72,2.11,12.77,4.58,17.98,7.32,5.27,2.78,9.69,5.57,13.5,8.55l3.87,3.02,1.6,4.65c1.34,3.9,2.37,8.15,3.08,12.63.69,4.38,1.05,8.98,1.05,13.67,0,3.34-.28,6.84-.82,10.41-.55,3.63-1.4,7.22-2.51,10.67-.56,1.74-1.21,3.47-1.92,5.14-1.59,3.69-1.06,7.97,1.35,11.17,2.65,3.52,5.04,7.41,7.09,11.57,4.87,9.86,7.33,21.72,7.33,35.27,0,11.17-2.44,21.9-7.26,31.89-4.79,9.94-11.85,18.75-20.97,26.16-8.81,7.17-19.68,12.87-32.31,16.95-12.32,3.98-26.52,6-42.22,6-7.6,0-14.86-.28-21.56-.83-6.91-.57-13.62-1.51-19.94-2.81-6.49-1.33-12.82-3.11-18.8-5.31-5.91-2.16-11.83-4.8-17.61-7.85l-3.61-1.9-2.31-3.36c-1.45-2.11-2.82-4.32-4.1-6.58-2.5-4.45-7.69-6.65-12.62-5.36-4.76,1.25-8.13,5.44-8.36,10.32l-5.65,4.96c-5.38,4.72-12.36,8.69-21.34,12.14-8.93,3.43-19.5,5.17-31.41,5.17-6.47,0-12.82-.71-18.89-2.11-6.62-1.53-12.63-3.95-17.86-7.2-5.84-3.62-10.59-8.32-14.14-13.99-3.86-6.15-5.82-13.29-5.82-21.2v-42.08l-19.42,36.95Z"/>
  <path class="st0" d="M195.83,671.38c-5.86-4.42-12.6-7.65-20.03-9.57-7.55-1.95-15.34-2.94-23.15-2.94-1.97,0-4.08.09-6.27.27-2.11.18-4.07.49-5.81.92l-1.13.28c.11-1.42.54-3.3,1.84-5.1,2.48-3.43,7.26-5.53,14.23-6.25,3.67-.38,8.48-.71,13.11.1,4.37.76,8.49,1.7,12.25,2.79,3.78,1.1,7.21,2.32,10.17,3.61,1.38.6,2.61,1.18,3.68,1.72l1.74.89,1.17-1.57c.61-.83,1.18-1.72,1.71-2.65,1.23-2.2,2.25-4.56,3.05-7.02.8-2.49,1.41-5.08,1.81-7.71.4-2.63.6-5.18.6-7.58,0-3.7-.27-7.31-.81-10.73-.46-2.86-1.07-5.57-1.84-8.06l-.23-.73-.61-.45c-2.66-1.96-5.87-3.93-9.52-5.85-4.21-2.22-9.2-4.24-14.85-6.02-5.67-1.78-12.21-3.24-19.45-4.34-7.25-1.1-15.44-1.66-24.36-1.66-9.87,0-19.84,1.21-29.64,3.59-9.71,2.36-18.57,6.11-26.31,11.14-7.66,4.98-13.96,11.5-18.72,19.4-4.72,7.83-7.11,17.4-7.11,28.43,0,3.91.47,7.78,1.4,11.51.93,3.73,2.28,7.23,4,10.41,1.71,3.16,3.83,6.04,6.29,8.54,1.93,1.97,4.09,3.67,6.41,5.07l.91.55,1.01-.34c1.85-.62,3.95-1.2,6.41-1.77,3.39-.78,7.46-1.18,12.1-1.18,8.21,0,15.32,1.17,21.14,3.46,5.8,2.29,10.57,5.1,14.18,8.37,4.12,3.73,6.64,6.95,7.93,10.15,1.71,4.26,1.84,7.9.36,10.83-1.51,2.99-4.43,4.73-6.4,5.61l-.51-1.56c-1.6-4.88-3.65-9.03-6.11-12.32-2.44-3.27-5.26-5.93-8.38-7.93-3.13-2-6.66-3.45-10.5-4.33-3.94-.89-8.16-1.35-12.54-1.35-5.3,0-10.2.89-14.59,2.64-4.39,1.76-8.2,4.17-11.34,7.18-3.13,3-5.63,6.6-7.41,10.7-1.78,4.09-2.68,8.55-2.68,13.26,0,6.14.94,11.66,2.79,16.43,1.75,4.5,3.99,8.83,6.68,12.88l.33.5.53.28c4.7,2.42,9.5,4.54,14.27,6.28,5.11,1.87,10.52,3.4,16.09,4.54,5.58,1.14,11.54,1.98,17.7,2.49,6.19.51,12.93.77,20.03.77,13.73,0,25.98-1.71,36.42-5.08,10.39-3.36,19.21-7.95,26.21-13.63,6.95-5.66,12.29-12.29,15.87-19.71,3.57-7.42,5.39-15.39,5.39-23.7,0-10.63-1.81-19.69-5.38-26.91-3.56-7.22-8.32-13.11-14.13-17.5"/>
  <path class="st0" d="M378.85,603.03c-3.64-2.68-7.88-4.7-12.59-6.03-4.79-1.34-9.74-2.02-14.75-2.02-7.26,0-14.45,1.32-21.37,3.92-6.2,2.34-11.6,5.7-16.05,10.01l-.71.68v34.26h.97c.35,1.08.68,2.01,1.59,2.56,6.72,4.07,9,8.06,9.77,10.46l-24.39-1.91v-27.47c0-5.48-1.09-10.31-3.24-14.36-2.17-4.07-5.08-7.47-8.66-10.11-3.64-2.68-7.88-4.7-12.59-6.03-4.78-1.34-9.74-2.02-14.75-2.02-7.27,0-14.46,1.32-21.37,3.92-6.2,2.34-11.6,5.7-16.05,10.01l-.7.68v138.76c0,4.65.92,8.75,2.75,12.19,1.85,3.49,4.41,6.32,7.83,8.65,3.46,2.36,7.65,4.19,12.47,5.43,4.89,1.25,10.39,1.89,16.34,1.89,2.73,0,5.63-.14,8.63-.41,2.96-.27,6.1-.82,9.34-1.62,3.23-.81,6.63-1.97,10.11-3.46,2.8-1.2,5.76-2.74,8.79-4.57l1.11-.67v-42.9h-8.36c-6.7,0-8.74-7.09-9.35-10.94h48.2l-.27,2.64c-2.52,5.45-8.75,8.3-10.5,8.3h-7.66v25.49c0,4.65.93,8.75,2.75,12.19,1.85,3.49,4.41,6.32,7.83,8.65,3.46,2.36,7.65,4.19,12.47,5.43,4.89,1.25,10.39,1.89,16.34,1.89,6.26,0,12.9-.76,19.72-2.26,5.95-1.31,11.76-3.9,17.26-7.69l1-.69v-138.39c0-5.49-1.09-10.31-3.24-14.36-2.16-4.07-5.08-7.46-8.66-10.1"/>
  <path class="st0" d="M554.58,618.68c-7.6-8.05-17.01-14.4-27.98-18.89-10.99-4.5-23.59-6.78-37.45-6.78-11.67,0-23.01,1.85-33.72,5.5-10.63,3.62-20.16,9.29-28.31,16.84-8.14,7.55-14.76,17.26-19.66,28.83-4.91,11.59-7.4,25.58-7.4,41.56,0,10.8,1.16,20.71,3.44,29.46,2.27,8.72,5.49,16.6,9.57,23.4,4.07,6.79,8.96,12.75,14.51,17.72,5.57,4.99,11.75,9.17,18.37,12.42,6.62,3.27,13.76,5.73,21.22,7.32,7.49,1.6,15.16,2.41,22.82,2.41,12.32,0,24.01-1.8,34.72-5.36,10.62-3.53,20.02-9.09,27.92-16.55,7.9-7.45,14.23-17.12,18.81-28.72,4.6-11.66,6.93-25.83,6.93-42.11,0-13.7-2.08-26.43-6.18-37.83-4.08-11.34-10.01-21.17-17.62-29.24M484.54,716.65l-.99-.74.07-1.23c.1-1.75.24-3.38.44-4.87.18-1.43.34-3.04.48-4.8.14-1.76.25-3.79.34-6.23.09-2.39.14-5.31.14-8.69v-9.12c0-3.38-.05-6.3-.14-8.68-.1-2.43-.21-4.47-.34-6.24-.14-1.74-.3-3.35-.48-4.79-.19-1.48-.34-3.12-.44-4.87l-.07-1.23.99-.74c.44-.33.97-.68,1.63-1.06.93-.54,2.09-.81,3.55-.81,1.54,0,3,.53,4.21,1.51,1.22,1,2.07,2.65,2.66,5.15l.02.07c.5,2.28.83,5.04,1.03,8.43.19,3.25.29,7.19.29,11.72v12.21c0,4.53-.1,8.47-.29,11.72-.2,3.39-.54,6.14-1.02,8.4l-.02.07c-.6,2.53-1.45,4.17-2.68,5.18-1.2.99-2.65,1.51-4.2,1.51-1.47,0-2.62-.26-3.55-.8-.65-.37-1.18-.72-1.63-1.06"/>
  <path class="st0" d="M64.15,548.34c8.59,7.79,22.63,12.79,41.73,14.86,11.03,1.21,24.37,2.09,39.66,2.62,15.34.53,33.78.8,54.78.8,29.28,0,55.73-1.61,78.64-4.79,22.79-3.16,42.26-8.29,57.86-15.27,15.43-6.89,27.35-16,35.42-27.06,8.02-10.99,12.09-24.62,12.09-40.52,0-9.29-1.64-18.37-4.87-27-3.21-8.57-8.19-16.3-14.8-22.99-6.62-6.69-15.18-12.25-25.43-16.54-10.28-4.3-22.65-6.7-36.78-7.15h-.17c3.11-3.36,9.89-8.27,23.21-8.95.91-.05,1.99-.13,3.17-.23,4.52-.35,10.71-.84,13.99.41l1.16.44,1.01-.73c2.67-1.92,5.12-4.25,7.29-6.95,2.74-3.41,5.02-7.13,6.8-11.06,1.77-3.95,3.13-8.14,4.02-12.45.89-4.33,1.34-8.68,1.34-12.92,0-11.13-2.94-21.95-8.75-32.16-5.81-10.21-15.2-19.37-27.89-27.21-12.82-7.91-29.68-14.32-50.14-19.05-20.53-4.74-45.75-7.15-74.95-7.15-23.73,0-45.32,1.3-64.16,3.87-18.83,2.57-34.98,5.78-47.99,9.54-12.92,3.74-22.89,7.77-29.64,11.99-8.14,5.08-9.36,8.34-9.36,9.83v209.86c0,16.18,4.29,28.27,12.75,35.94M197.75,445.23l-.26-1.79,1.67-.69c.94-.39,2.15-.66,3.68-.85,1.42-.16,2.59-.24,3.61-.24,5.04,0,8.75,1.73,10.75,5,1.82,2.99,2.7,7.28,2.7,13.1v4.35c0,5.86-1.13,9.87-3.44,12.25-2.33,2.39-5.97,3.56-11.12,3.56-.45,0-1.29-.04-2.51-.12-1.59-.1-2.74-.37-3.62-.85l-1.19-.66v-29.51c0-1.23-.09-2.42-.26-3.55M206.44,357.67c5.01,0,8.72,1.63,10.71,4.72,1.84,2.85,2.74,7.08,2.74,12.93v1.37c0,5.78-1.08,9.93-3.3,12.67-2.31,2.85-6.1,4.29-11.26,4.29-.46,0-1.3-.04-2.51-.12-1.59-.1-2.74-.37-3.62-.85l-1.19-.66v-27.22c0-1.23-.09-2.42-.26-3.55l-.27-1.79,1.68-.69c.94-.39,2.15-.66,3.67-.85,1.42-.16,2.6-.24,3.61-.24"/>
  <path class="st0" d="M402.67,355.41c-2.53.83-5.11,1.88-7.66,3.11l-1.31.63v139.59c0,13.28,2.44,24.47,7.24,33.27,4.82,8.83,10.99,15.98,18.32,21.25,7.38,5.3,15.64,9.12,24.55,11.34,9.02,2.26,17.76,3.4,25.97,3.4,10.65,0,20.62-1.22,29.63-3.61,8.9-2.36,16.66-6.06,23.07-10.99,6.36-4.88,11.37-11.2,14.88-18.77,3.53-7.61,5.33-16.84,5.33-27.44v-3.8c0-.51,0-1-.03-1.45l-.05-1.26-1.08-.64c-6.72-3.96-11.43-9.49-14-16.45-2.72-7.38-4.1-16.29-4.1-26.5v-84.95l-.88-.69c-.17-.13-.36-.28-.59-.46-1.22-.93-2.53-1.9-3.9-2.89-1.28-.92-2.5-1.72-3.61-2.39-.97-.8-1.96-.6-2.35-.46-13.87,4.67-27.64,2.68-33.55-1.57-1.36-.98-2.28-2.03-2.76-3.16.81-.14,1.52-.27,1.52-.27,7.14-1.25,14.13-3.56,20.76-6.84,6.6-3.27,12.44-7.39,17.35-12.26,4.89-4.84,8.86-10.43,11.82-16.6,2.91-6.1,4.39-12.8,4.39-19.93,0-8.42-1.82-16.35-5.43-23.59-3.62-7.26-8.7-13.61-15.1-18.88-6.45-5.3-14.16-9.54-22.92-12.62-8.78-3.08-18.52-4.64-28.93-4.64s-19.97,1.49-28.83,4.44c-8.85,2.93-16.69,7.08-23.31,12.31-6.58,5.19-11.83,11.51-15.62,18.77-3.76,7.23-5.67,15.37-5.67,24.2,0,5.61.88,10.73,2.61,15.21,1.76,4.53,4.04,8.6,6.79,12.09,2.77,3.51,5.86,6.55,9.19,9,3.37,2.49,6.68,4.45,9.84,5.81l4.93,2.13-4.94,2.11c-4.1,1.76-7.98,3.25-11.54,4.41"/>
  <path class="st0" d="M573.56,506.17c8.72,11.2,19.23,21.01,31.22,29.14,12.05,8.18,25.47,15.02,39.89,20.34,14.43,5.33,30.03,9.34,46.35,11.9,16.34,2.56,33.27,3.86,50.33,3.86s33.91-1.07,48.4-3.18c14.51-2.11,27.75-4.98,39.35-8.5,11.6-3.53,22.11-7.67,31.23-12.32,8.3-4.23,15.88-8.71,22.53-13.32l1-.69v-69.78h12.6l.69-.98c2.97-4.24,5.61-9.59,7.87-15.9,2.59-7.28,3.9-15.45,3.9-24.28,0-7.66-1.19-15.57-3.53-23.49-2.11-7.14-5.62-13.87-10.43-20l-.69-.89h-163.18l-.68.68c-1.28,1.28-2.73,2.86-4.32,4.7-2.1,2.45-4.06,5.48-5.81,9.02-1.79,3.6-3.33,7.77-4.57,12.39-1.24,4.58-1.87,9.73-1.87,15.3,0,7.15,1.07,13.53,3.19,18.96,2.1,5.39,5.01,9.93,8.66,13.49,3.65,3.57,7.92,6.29,12.7,8.07,4.81,1.8,10.11,2.71,15.76,2.71h5.37v7.58c0,2.06-1.01,3.97-2.85,5.38-1.75,1.34-4.41,1.97-8.37,1.97-6.92,0-13.69-1.16-20.13-3.45-6.5-2.31-12.3-5.86-17.25-10.57-4.95-4.7-8.97-10.66-11.96-17.71-2.99-7.04-4.5-15.47-4.5-25.05,0-7.52.92-14.47,2.74-20.67,1.8-6.15,4.02-11.68,6.59-16.47,2.58-4.79,5.39-8.97,8.36-12.42,2.93-3.42,5.58-6.19,7.88-8.23l.65-.59h146.32l.64-1.26c1.47-2.91,2.88-6.38,4.21-10.32,1.72-5.14,3.19-10.67,4.38-16.44,1.19-5.8,2.17-11.71,2.9-17.56.61-4.88.97-9.5,1.07-13.74l.03-1.26-1.05-.71c-6.52-4.42-14.42-8.68-23.48-12.68-10.08-4.44-21.4-8.4-33.66-11.79-12.29-3.39-25.68-6.14-39.82-8.18-14.12-2.03-28.82-3.07-43.67-3.07-28.43,0-54.79,3.28-78.34,9.76-23.47,6.46-43.91,16.18-60.77,28.91-16.8,12.69-30.07,28.7-39.43,47.58-9.36,18.89-14.1,41.22-14.1,66.38,0,17.98,2.44,34.4,7.26,48.81,4.81,14.4,11.66,27.37,20.38,38.56"/>
  <path class="st0" d="M734.62,598.68l-.66-1.18h-143.04l-.68.7c-1.01,1.04-2.03,2.26-3.03,3.62-1.44,1.96-2.75,4.27-3.9,6.87-1.14,2.61-2.09,5.62-2.8,8.96-.71,3.33-1.08,7.11-1.08,11.24,0,5.45.77,10.67,2.28,15.53,1.3,4.17,3.33,8.44,6.04,12.68l.68,1.07h33.82v92.72c0,4.38.96,8.04,2.94,11.2,2.03,3.24,4.68,5.84,8.11,7.97,3.46,2.15,7.55,3.78,12.15,4.84,4.67,1.08,9.6,1.62,14.64,1.62,9.59,0,17.88-1.32,24.65-3.92,5.77-2.22,10.47-4.68,13.96-7.32l.91-.69.27-93.37-1.81-.4c-4.73-1.05-12.3-2.8-13.75-3.3-7.66-2.62-8.92-6.95-8.97-9.34h42.29c3.64,0,7.01-.57,10-1.68,2.96-1.1,5.45-2.76,7.61-5.09,2.15-2.31,3.87-5.38,5.12-9.13,1.27-3.82,1.92-8.51,1.92-13.94,0-5.83-.89-11.7-2.64-17.44-1.42-4.68-3.12-8.78-5.05-12.21"/>
  <path class="st0" d="M891.8,671.38c-5.86-4.42-12.59-7.65-20.03-9.57-7.55-1.95-15.33-2.94-23.15-2.94-1.97,0-4.08.09-6.27.27-2.11.18-4.07.49-5.81.92l-1.71.43-.65-2c3.7-10.96,11.97-10.78,18.64-10.63.69.01,1.34.03,1.95.03,3.33,0,4.64.24,7.23.73.75.14,1.59.3,2.6.48,4.37.76,8.49,1.7,12.25,2.79,3.78,1.1,7.2,2.32,10.17,3.61,1.37.6,2.61,1.18,3.67,1.72l1.74.89,1.17-1.57c.61-.83,1.19-1.72,1.71-2.65,1.23-2.19,2.26-4.56,3.05-7.02.8-2.48,1.41-5.07,1.81-7.71.4-2.64.61-5.19.61-7.58,0-3.7-.28-7.32-.82-10.73-.45-2.86-1.07-5.57-1.84-8.06l-.23-.73-.61-.45c-2.66-1.96-5.87-3.93-9.52-5.85-4.21-2.22-9.2-4.24-14.85-6.02-5.67-1.78-12.21-3.24-19.45-4.34-7.25-1.1-15.44-1.66-24.36-1.66-9.88,0-19.85,1.21-29.64,3.59-9.71,2.36-18.57,6.11-26.31,11.14-7.66,4.98-13.96,11.51-18.72,19.4-4.72,7.83-7.11,17.4-7.11,28.43,0,3.91.48,7.79,1.41,11.51.93,3.73,2.28,7.24,4,10.41,1.71,3.17,3.83,6.04,6.28,8.54,1.93,1.97,4.09,3.67,6.41,5.07l.91.55,1.01-.34c1.85-.62,3.95-1.2,6.41-1.77,3.39-.78,7.46-1.18,12.11-1.18,8.21,0,15.32,1.17,21.14,3.46,5.65,2.23,10.97,4.54,13.95,8.12,5.46,6.6,7.01,13.27,4.61,19.84-.81,2.22-1.96,4.07-2.99,5.46v-.03c-1.61-4.88-3.66-9.03-6.12-12.32-2.44-3.27-5.26-5.93-8.38-7.93-3.13-2-6.66-3.45-10.49-4.33-3.94-.89-8.17-1.35-12.55-1.35-5.3,0-10.2.89-14.59,2.65-4.39,1.75-8.2,4.17-11.33,7.17-3.13,3-5.63,6.6-7.42,10.7-1.78,4.09-2.68,8.55-2.68,13.26,0,6.14.94,11.67,2.79,16.43,1.75,4.5,3.99,8.83,6.68,12.88l.33.5.53.28c4.69,2.42,9.49,4.54,14.26,6.28,5.11,1.87,10.52,3.4,16.1,4.54,5.59,1.14,11.54,1.98,17.69,2.49,6.19.51,12.93.77,20.03.77,13.73,0,25.98-1.71,36.42-5.08,10.39-3.36,19.21-7.95,26.21-13.63,6.95-5.65,12.29-12.28,15.87-19.71,3.58-7.42,5.39-15.39,5.39-23.7,0-10.63-1.81-19.69-5.38-26.91-3.57-7.22-8.32-13.11-14.13-17.5"/>
  <path class="st0" d="M958.38,756.45h22.84v6.67h-7.66v20.34h-7.51v-20.34h-7.66v-6.67Z"/>
  <path class="st0" d="M984.54,756.45h9.88l3.81,16.43,3.78-16.43h9.87v27.01h-6.15v-20.6l-4.74,20.6h-5.57l-4.73-20.6v20.6h-6.15v-27.01Z"/>
</svg>